<?xml version="1.0" encoding="utf-8"?><svg xmlns="http://www.w3.org/2000/svg" xmlns:xlink="http://www.w3.org/1999/xlink"><symbol viewBox="0 0 24 24" id="arrow-left" xmlns="http://www.w3.org/2000/svg"><g clip-path="url(#aclip0_114_331)"><path d="M21 11H6.83L10.41 7.41L9 6L3 12L9 18L10.41 16.59L6.83 13H21V11Z"/></g><defs><clipPath id="aclip0_114_331"><rect width="24" height="24"/></clipPath></defs></symbol><symbol viewBox="0 0 24 24" id="bell" xmlns="http://www.w3.org/2000/svg"><path d="M19 13.586V10C19 6.783 16.815 4.073 13.855 3.258C13.562 2.52 12.846 2 12 2C11.154 2 10.438 2.52 10.145 3.258C7.185 4.074 5 6.783 5 10V13.586L3.293 15.293C3.19996 15.3857 3.12617 15.4959 3.07589 15.6172C3.0256 15.7386 2.99981 15.8687 3 16V18C3 18.2652 3.10536 18.5196 3.29289 18.7071C3.48043 18.8946 3.73478 19 4 19H20C20.2652 19 20.5196 18.8946 20.7071 18.7071C20.8946 18.5196 21 18.2652 21 18V16C21.0002 15.8687 20.9744 15.7386 20.9241 15.6172C20.8738 15.4959 20.8 15.3857 20.707 15.293L19 13.586ZM19 17H5V16.414L6.707 14.707C6.80004 14.6143 6.87383 14.5041 6.92412 14.3828C6.9744 14.2614 7.00019 14.1313 7 14V10C7 7.243 9.243 5 12 5C14.757 5 17 7.243 17 10V14C17 14.266 17.105 14.52 17.293 14.707L19 16.414V17ZM12 22C12.6193 22.0008 13.2235 21.8086 13.7285 21.4502C14.2335 21.0917 14.6143 20.5849 14.818 20H9.182C9.38566 20.5849 9.76648 21.0917 10.2715 21.4502C10.7765 21.8086 11.3807 22.0008 12 22Z"/></symbol><symbol viewBox="0 0 36 36" id="cart" xmlns="http://www.w3.org/2000/svg"><path d="M10.5 27C8.85 27 7.515 28.35 7.515 30C7.515 31.65 8.85 33 10.5 33C12.15 33 13.5 31.65 13.5 30C13.5 28.35 12.15 27 10.5 27ZM1.5 3V6H4.5L9.9 17.385L7.875 21.06C7.635 21.48 7.5 21.975 7.5 22.5C7.5 24.15 8.85 25.5 10.5 25.5H28.5V22.5H11.13C10.92 22.5 10.755 22.335 10.755 22.125L10.8 21.945L12.15 19.5H23.325C24.45 19.5 25.44 18.885 25.95 17.955L31.32 8.22C31.44 8.01 31.5 7.755 31.5 7.5C31.5 6.675 30.825 6 30 6H7.815L6.405 3H1.5ZM25.5 27C23.85 27 22.515 28.35 22.515 30C22.515 31.65 23.85 33 25.5 33C27.15 33 28.5 31.65 28.5 30C28.5 28.35 27.15 27 25.5 27Z"/></symbol><symbol viewBox="0 0 24 24" id="chat-icon" xmlns="http://www.w3.org/2000/svg"><g clip-path="url(#dclip0_1_30)"><path d="M20 2H4C2.9 2 2.01 2.9 2.01 4L2 22L6 18H20C21.1 18 22 17.1 22 16V4C22 2.9 21.1 2 20 2ZM6 9H18V11H6V9ZM14 14H6V12H14V14ZM18 8H6V6H18V8Z"/></g><defs><clipPath id="dclip0_1_30"><rect width="24" height="24"/></clipPath></defs></symbol><symbol viewBox="0 0 24 25" id="eye-icon" xmlns="http://www.w3.org/2000/svg"><path d="M21.257 11.462C21.731 12.082 21.731 12.919 21.257 13.538C19.764 15.487 16.182 19.5 12 19.5C7.81801 19.5 4.23601 15.487 2.74301 13.538C2.51239 13.2411 2.38721 12.8759 2.38721 12.5C2.38721 12.1241 2.51239 11.7589 2.74301 11.462C4.23601 9.513 7.81801 5.5 12 5.5C16.182 5.5 19.764 9.513 21.257 11.462V11.462Z" stroke="#8F8F8F" stroke-width="2" stroke-linecap="round" stroke-linejoin="round"/><path d="M12 15.5C13.6569 15.5 15 14.1569 15 12.5C15 10.8431 13.6569 9.5 12 9.5C10.3431 9.5 9 10.8431 9 12.5C9 14.1569 10.3431 15.5 12 15.5Z" stroke="#8F8F8F" stroke-width="2" stroke-linecap="round" stroke-linejoin="round"/></symbol><symbol viewBox="0 0 36 36" id="favourite" xmlns="http://www.w3.org/2000/svg"><path d="M18 32.025L15.825 30.045C8.1 23.04 3 18.42 3 12.75C3 8.13 6.63 4.5 11.25 4.5C13.86 4.5 16.365 5.715 18 7.635C19.635 5.715 22.14 4.5 24.75 4.5C29.37 4.5 33 8.13 33 12.75C33 18.42 27.9 23.04 20.175 30.06L18 32.025Z"/></symbol><symbol viewBox="0 0 26 26" id="fb-icon" xmlns="http://www.w3.org/2000/svg"><path d="M19.5002 2.1665H16.2502C14.8136 2.1665 13.4358 2.73719 12.42 3.75301C11.4042 4.76883 10.8335 6.14658 10.8335 7.58317V10.8332H7.5835V15.1665H10.8335V23.8332H15.1668V15.1665H18.4168L19.5002 10.8332H15.1668V7.58317C15.1668 7.29585 15.281 7.0203 15.4841 6.81714C15.6873 6.61397 15.9628 6.49984 16.2502 6.49984H19.5002V2.1665Z" stroke="none" stroke-width="2" stroke-linecap="round" stroke-linejoin="round"/></symbol><symbol viewBox="0 0 26 26" id="instagram-icon" xmlns="http://www.w3.org/2000/svg"><path d="M13 2C10.0149 2 9.6395 2.01375 8.46663 2.066C7.29375 2.121 6.49487 2.30525 5.795 2.5775C5.06088 2.85363 4.39593 3.28676 3.84663 3.84663C3.2871 4.39621 2.85402 5.06108 2.5775 5.795C2.30525 6.4935 2.11963 7.29375 2.066 8.4625C2.01375 9.63812 2 10.0121 2 13.0014C2 15.9879 2.01375 16.3619 2.066 17.5347C2.121 18.7063 2.30525 19.5051 2.5775 20.205C2.85938 20.9282 3.23475 21.5415 3.84663 22.1534C4.45713 22.7652 5.07037 23.142 5.79363 23.4225C6.49487 23.6947 7.29238 23.8804 8.46388 23.934C9.63813 23.9862 10.0121 24 13 24C15.9879 24 16.3605 23.9862 17.5347 23.934C18.7049 23.879 19.5065 23.6947 20.2064 23.4225C20.94 23.1462 21.6045 22.7131 22.1534 22.1534C22.7652 21.5415 23.1406 20.9282 23.4225 20.205C23.6934 19.5051 23.879 18.7063 23.934 17.5347C23.9862 16.3619 24 15.9879 24 13C24 10.0121 23.9862 9.63813 23.934 8.46388C23.879 7.29375 23.6934 6.4935 23.4225 5.795C23.146 5.06106 22.7129 4.39618 22.1534 3.84663C21.6042 3.28655 20.9392 2.85339 20.205 2.5775C19.5037 2.30525 18.7035 2.11963 17.5334 2.066C16.3591 2.01375 15.9865 2 12.9973 2H13.0014H13ZM12.0141 3.98275H13.0014C15.9384 3.98275 16.2863 3.99238 17.4454 4.046C18.5179 4.09413 19.1009 4.27425 19.4886 4.42412C20.0015 4.6235 20.3686 4.86275 20.7536 5.24775C21.1386 5.63275 21.3765 5.9985 21.5759 6.51275C21.7271 6.89913 21.9059 7.48213 21.954 8.55463C22.0076 9.71375 22.0186 10.0616 22.0186 12.9973C22.0186 15.9329 22.0076 16.2821 21.954 17.4412C21.9059 18.5138 21.7257 19.0954 21.5759 19.4831C21.3995 19.9607 21.118 20.3926 20.7522 20.7467C20.3672 21.1318 20.0015 21.3696 19.4873 21.569C19.1023 21.7203 18.5192 21.899 17.4454 21.9485C16.2863 22.0007 15.9384 22.0131 13.0014 22.0131C10.0644 22.0131 9.71513 22.0007 8.556 21.9485C7.4835 21.899 6.90188 21.7203 6.51412 21.569C6.03631 21.3929 5.60405 21.1119 5.24913 20.7467C4.88303 20.392 4.60112 19.9598 4.42412 19.4818C4.27425 19.0954 4.09413 18.5124 4.046 17.4399C3.99375 16.2808 3.98275 15.9329 3.98275 12.9945C3.98275 10.0575 3.99375 9.711 4.046 8.55187C4.0955 7.47937 4.27425 6.89638 4.4255 6.50863C4.62488 5.99575 4.86412 5.62862 5.24913 5.24362C5.63412 4.85862 5.99988 4.62075 6.51412 4.42138C6.90188 4.27013 7.4835 4.09138 8.556 4.04188C9.57075 3.99513 9.964 3.98138 12.0141 3.98V3.98275ZM18.8726 5.80875C18.6993 5.80875 18.5276 5.84289 18.3675 5.90923C18.2073 5.97557 18.0618 6.0728 17.9392 6.19537C17.8167 6.31794 17.7194 6.46346 17.6531 6.62361C17.5868 6.78376 17.5526 6.95541 17.5526 7.12875C17.5526 7.30209 17.5868 7.47374 17.6531 7.63389C17.7194 7.79404 17.8167 7.93956 17.9392 8.06213C18.0618 8.1847 18.2073 8.28193 18.3675 8.34827C18.5276 8.41461 18.6993 8.44875 18.8726 8.44875C19.2227 8.44875 19.5585 8.30968 19.806 8.06213C20.0536 7.81458 20.1926 7.47884 20.1926 7.12875C20.1926 6.77866 20.0536 6.44292 19.806 6.19537C19.5585 5.94782 19.2227 5.80875 18.8726 5.80875ZM13.0014 7.3515C12.2521 7.33981 11.508 7.47729 10.8123 7.75594C10.1167 8.0346 9.48346 8.44885 8.94946 8.97458C8.41546 9.50032 7.99138 10.127 7.70191 10.8182C7.41244 11.5094 7.26336 12.2513 7.26336 13.0007C7.26336 13.7501 7.41244 14.4919 7.70191 15.1831C7.99138 15.8743 8.41546 16.5011 8.94946 17.0268C9.48346 17.5525 10.1167 17.9668 10.8123 18.2454C11.508 18.5241 12.2521 18.6616 13.0014 18.6499C14.4844 18.6267 15.8988 18.0214 16.9393 16.9645C17.9799 15.9076 18.5631 14.4839 18.5631 13.0007C18.5631 11.5175 17.9799 10.0938 16.9393 9.03691C15.8988 7.97999 14.4844 7.37464 13.0014 7.3515ZM13.0014 9.33288C13.974 9.33288 14.9067 9.71923 15.5944 10.407C16.2821 11.0947 16.6685 12.0274 16.6685 13C16.6685 13.9726 16.2821 14.9053 15.5944 15.593C14.9067 16.2808 13.974 16.6671 13.0014 16.6671C12.0288 16.6671 11.096 16.2808 10.4083 15.593C9.72061 14.9053 9.33425 13.9726 9.33425 13C9.33425 12.0274 9.72061 11.0947 10.4083 10.407C11.096 9.71923 12.0288 9.33288 13.0014 9.33288Z"/></symbol><symbol viewBox="0 0 28 28" id="left" xmlns="http://www.w3.org/2000/svg"><g clip-path="url(#iclip0_210_3558)"><path d="M24.5 12.8333H7.96833L12.145 8.645L10.5 7L3.5 14L10.5 21L12.145 19.355L7.96833 15.1667H24.5V12.8333Z"/></g><defs><clipPath id="iclip0_210_3558"><rect width="28" height="28"/></clipPath></defs></symbol><symbol viewBox="0 0 36 36" id="person-icon" xmlns="http://www.w3.org/2000/svg"><g clip-path="url(#jclip0_1_20)"><path d="M18 18C21.315 18 24 15.315 24 12C24 8.685 21.315 6 18 6C14.685 6 12 8.685 12 12C12 15.315 14.685 18 18 18ZM18 21C13.995 21 6 23.01 6 27V30H30V27C30 23.01 22.005 21 18 21Z"/></g><defs><clipPath id="jclip0_1_20"><rect width="36" height="36"/></clipPath></defs></symbol><symbol viewBox="0 0 28 28" id="right" xmlns="http://www.w3.org/2000/svg"><g clip-path="url(#kclip0_210_3561)"><path d="M3.5 12.8333H20.0317L15.855 8.645L17.5 7L24.5 14L17.5 21L15.855 19.355L20.0317 15.1667H3.5V12.8333Z"/></g><defs><clipPath id="kclip0_210_3561"><rect width="28" height="28" transform="matrix(-1 0 0 1 28 0)"/></clipPath></defs></symbol><symbol viewBox="0 0 26 26" id="telegram-icon" xmlns="http://www.w3.org/2000/svg"><path fill-rule="evenodd" clip-rule="evenodd" d="M6.27059 15.1884C6.31714 15.2039 6.36501 15.2152 6.41359 15.222C6.72009 15.9442 7.02487 16.6671 7.32793 17.3908C7.87284 18.693 8.42209 20.0342 8.54234 20.4198C8.69293 20.8943 8.85109 21.2172 9.02443 21.4382C9.11434 21.5508 9.21726 21.6505 9.33859 21.7263C9.4018 21.7659 9.46943 21.7979 9.54009 21.8217C9.88676 21.9517 10.2031 21.8975 10.4013 21.8314C10.5177 21.7917 10.6284 21.7371 10.7307 21.6689L10.7361 21.6667L13.7976 19.7579L17.3347 22.4684C17.3867 22.5085 17.443 22.5421 17.5037 22.5692C17.9283 22.7533 18.34 22.8183 18.7278 22.7663C19.1135 22.7122 19.4201 22.5507 19.6487 22.3677C19.9111 22.1561 20.1204 21.886 20.2597 21.579L20.2694 21.5552L20.2727 21.5465L20.2748 21.5422V21.54L20.2759 21.5389C20.2948 21.4923 20.3093 21.4441 20.3193 21.3948L23.5476 5.11773C23.5578 5.06563 23.5629 5.01266 23.5628 4.95957C23.5628 4.4829 23.3829 4.02898 22.9615 3.7549C22.5997 3.51982 22.1978 3.50898 21.9432 3.52848C21.6702 3.55015 21.4167 3.61732 21.2466 3.67148C21.1514 3.70166 21.0574 3.73563 20.9649 3.77332L20.953 3.77873L2.84618 10.8811L2.84401 10.8822C2.78275 10.9047 2.72239 10.9296 2.66309 10.9569C2.51951 11.0215 2.38178 11.0983 2.25143 11.1866C2.00551 11.3545 1.43893 11.816 1.53534 12.5786C1.61118 13.1853 2.02718 13.5591 2.28176 13.7389C2.42043 13.8375 2.55259 13.9079 2.65009 13.9545C2.69343 13.9761 2.78659 14.013 2.82668 14.0303L2.83751 14.0336L6.27059 15.1884ZM21.5868 5.27373H21.5846C21.5753 5.27787 21.5659 5.28185 21.5564 5.28565L3.42793 12.3977C3.4186 12.4015 3.40921 12.4051 3.39976 12.4086L3.38893 12.4118C3.35581 12.4248 3.32328 12.4393 3.29143 12.4551C3.32158 12.4724 3.35268 12.488 3.38459 12.5017L6.78843 13.6479C6.84925 13.6684 6.90744 13.696 6.96176 13.7302L18.2035 7.14898L18.2143 7.14357C18.258 7.11703 18.3028 7.09245 18.3487 7.0699C18.4267 7.02982 18.5513 6.97132 18.6921 6.92798C18.7896 6.89765 19.0788 6.81207 19.3908 6.91282C19.5563 6.96498 19.7038 7.06263 19.8165 7.19461C19.9291 7.3266 20.0023 7.4876 20.0278 7.65923C20.0682 7.80955 20.0693 7.9677 20.0311 8.11857C19.9553 8.41648 19.7473 8.64832 19.5566 8.82598C19.3941 8.97765 17.287 11.01 15.2081 13.0163L12.3773 15.7463L11.8736 16.2338L18.2349 21.111C18.3208 21.147 18.414 21.1619 18.5068 21.1543C18.5536 21.148 18.5976 21.1284 18.6336 21.098C18.6775 21.0609 18.7152 21.017 18.7452 20.968L18.7473 20.9669L21.8782 5.17948C21.7796 5.20321 21.6829 5.23435 21.5889 5.27265L21.5868 5.27373ZM12.4207 18.7006L11.151 17.7277L10.8433 19.6832L12.4207 18.7006ZM9.98643 15.7972L11.2485 14.5785L14.0793 11.8463L15.1333 10.8301L8.07001 14.9652L8.10793 15.0541C8.5534 16.1064 8.99396 17.1609 9.42959 18.2174L9.73618 16.2674C9.76392 16.0865 9.85213 15.9215 9.98643 15.7972Z"/></symbol><symbol viewBox="0 0 26 26" id="whatsapp-icon" xmlns="http://www.w3.org/2000/svg"><path d="M18.1156 15.2318C17.8389 15.0896 16.4602 14.4143 16.2037 14.3229C15.9473 14.2264 15.7594 14.1807 15.574 14.465C15.3861 14.7469 14.8529 15.374 14.6853 15.5645C14.5228 15.7523 14.3578 15.7752 14.081 15.6355C12.4357 14.8129 11.3566 14.168 10.2725 12.3068C9.98555 11.8117 10.5594 11.8473 11.0951 10.7783C11.1865 10.5904 11.1408 10.4305 11.0697 10.2883C10.9986 10.1461 10.44 8.76992 10.2064 8.20879C9.98047 7.66289 9.74687 7.73906 9.57676 7.72891C9.41426 7.71875 9.22891 7.71875 9.04101 7.71875C8.85312 7.71875 8.55098 7.78984 8.29453 8.0666C8.03809 8.34844 7.31445 9.02637 7.31445 10.4025C7.31445 11.7787 8.31738 13.1117 8.45449 13.2996C8.59668 13.4875 10.4273 16.3109 13.2381 17.5271C15.0154 18.2939 15.7111 18.36 16.5998 18.2279C17.1406 18.1467 18.2553 17.5525 18.4863 16.8949C18.7174 16.2398 18.7174 15.6787 18.6488 15.5619C18.5803 15.4375 18.3924 15.3664 18.1156 15.2318Z"/><path d="M23.4915 8.59219C22.9177 7.22871 22.0951 6.00488 21.0464 4.95371C19.9978 3.90508 18.774 3.07988 17.408 2.50859C16.0115 1.92207 14.5287 1.625 13.0001 1.625H12.9494C11.4107 1.63262 9.92026 1.9373 8.5187 2.53652C7.16538 3.11543 5.95171 3.93809 4.91323 4.98672C3.87475 6.03535 3.05971 7.2541 2.49604 8.6125C1.91206 10.0191 1.61753 11.5146 1.62514 13.0533C1.63276 14.8154 2.05425 16.5648 2.84389 18.1289V21.9883C2.84389 22.6332 3.36694 23.1562 4.01186 23.1562H7.87378C9.43784 23.9459 11.1873 24.3674 12.9494 24.375H13.0027C14.5236 24.375 15.9988 24.0805 17.3876 23.5041C18.746 22.9379 19.9673 22.1254 21.0134 21.0869C22.0621 20.0484 22.8873 18.8348 23.4636 17.4814C24.0628 16.0799 24.3675 14.5895 24.3751 13.0508C24.3828 11.5045 24.0832 10.0039 23.4915 8.59219ZM19.655 19.7133C17.8751 21.4754 15.5138 22.4453 13.0001 22.4453H12.957C11.4259 22.4377 9.90503 22.0568 8.56186 21.3408L8.34858 21.2266H4.77358V17.6516L4.65932 17.4383C3.94331 16.0951 3.56245 14.5742 3.55483 13.0432C3.54468 10.5117 4.51206 8.13516 6.28686 6.34512C8.05913 4.55508 10.4281 3.56484 12.9595 3.55469H13.0027C14.2722 3.55469 15.5037 3.80098 16.664 4.28848C17.7964 4.76328 18.8121 5.44629 19.6855 6.31973C20.5564 7.19062 21.2419 8.20879 21.7167 9.34121C22.2093 10.5143 22.4556 11.7584 22.4505 13.0432C22.4353 15.5721 21.4425 17.941 19.655 19.7133Z"/></symbol><symbol viewBox="0 0 26 27" id="yt-icon" xmlns="http://www.w3.org/2000/svg"><path d="M24.375 13.8558C24.375 13.7999 24.375 13.7365 24.3725 13.6628C24.3699 13.4572 24.3648 13.2261 24.3598 12.9798C24.3395 12.2714 24.3039 11.5656 24.248 10.9003C24.1719 9.98374 24.0602 9.21948 23.9078 8.64565C23.747 8.04681 23.4319 7.50066 22.9939 7.06178C22.5559 6.6229 22.0104 6.30666 21.4119 6.14468C20.6934 5.95171 19.2867 5.83237 17.3062 5.75874C16.3643 5.72319 15.3562 5.70034 14.3482 5.68765C13.9953 5.68257 13.6678 5.68003 13.3732 5.67749H12.6268C12.3322 5.68003 12.0047 5.68257 11.6518 5.68765C10.6438 5.70034 9.63574 5.72319 8.69375 5.75874C6.71328 5.83491 5.3041 5.95425 4.58809 6.14468C3.98938 6.30626 3.44365 6.62236 3.0056 7.06131C2.56755 7.50025 2.25255 8.04662 2.09219 8.64565C1.9373 9.21948 1.82812 9.98374 1.75195 10.9003C1.69609 11.5656 1.66055 12.2714 1.64023 12.9798C1.63262 13.2261 1.63008 13.4572 1.62754 13.6628C1.62754 13.7365 1.625 13.7999 1.625 13.8558V13.998C1.625 14.0539 1.625 14.1173 1.62754 14.191C1.63008 14.3966 1.63516 14.6277 1.64023 14.874C1.66055 15.5824 1.69609 16.2882 1.75195 16.9535C1.82812 17.8701 1.93984 18.6343 2.09219 19.2082C2.41719 20.4244 3.37187 21.3841 4.58809 21.7091C5.3041 21.9021 6.71328 22.0214 8.69375 22.0951C9.63574 22.1306 10.6438 22.1535 11.6518 22.1662C12.0047 22.1712 12.3322 22.1738 12.6268 22.1763H13.3732C13.6678 22.1738 13.9953 22.1712 14.3482 22.1662C15.3562 22.1535 16.3643 22.1306 17.3062 22.0951C19.2867 22.0189 20.6959 21.8996 21.4119 21.7091C22.6281 21.3841 23.5828 20.4269 23.9078 19.2082C24.0627 18.6343 24.1719 17.8701 24.248 16.9535C24.3039 16.2882 24.3395 15.5824 24.3598 14.874C24.3674 14.6277 24.3699 14.3966 24.3725 14.191C24.3725 14.1173 24.375 14.0539 24.375 13.998V13.8558ZM22.5469 13.9878C22.5469 14.0412 22.5469 14.0996 22.5443 14.1681C22.5418 14.3662 22.5367 14.5845 22.5316 14.8207C22.5139 15.496 22.4783 16.1714 22.425 16.7986C22.3564 17.6162 22.26 18.2865 22.1406 18.7359C21.9832 19.3224 21.5211 19.7871 20.9371 19.9419C20.4039 20.0841 19.0607 20.1984 17.2352 20.2669C16.3109 20.3025 15.3156 20.3253 14.3229 20.338C13.975 20.3431 13.6525 20.3456 13.3631 20.3456H12.6369L11.6771 20.338C10.6844 20.3253 9.6916 20.3025 8.76484 20.2669C6.93926 20.1958 5.59355 20.0841 5.06289 19.9419C4.47891 19.7845 4.0168 19.3224 3.85938 18.7359C3.74004 18.2865 3.64355 17.6162 3.575 16.7986C3.52168 16.1714 3.48867 15.496 3.46836 14.8207C3.46074 14.5845 3.4582 14.3636 3.45566 14.1681C3.45566 14.0996 3.45312 14.0386 3.45312 13.9878V13.866C3.45312 13.8126 3.45313 13.7542 3.45566 13.6857C3.4582 13.4876 3.46328 13.2693 3.46836 13.0332C3.48613 12.3578 3.52168 11.6824 3.575 11.0552C3.64355 10.2376 3.74004 9.56733 3.85938 9.11792C4.0168 8.5314 4.47891 8.06675 5.06289 7.91186C5.59609 7.76968 6.93926 7.65542 8.76484 7.58686C9.68906 7.55132 10.6844 7.52847 11.6771 7.51577C12.025 7.51069 12.3475 7.50815 12.6369 7.50815H13.3631L14.3229 7.51577C15.3156 7.52847 16.3084 7.55132 17.2352 7.58686C19.0607 7.65796 20.4064 7.76968 20.9371 7.91186C21.5211 8.06929 21.9832 8.5314 22.1406 9.11792C22.26 9.56733 22.3564 10.2376 22.425 11.0552C22.4783 11.6824 22.5113 12.3578 22.5316 13.0332C22.5393 13.2693 22.5418 13.4902 22.5443 13.6857C22.5443 13.7542 22.5469 13.8152 22.5469 13.866V13.9878ZM10.7402 17.3292L16.6309 13.9015L10.7402 10.5246V17.3292Z"/></symbol></svg>