<svg width="26" height="26" viewBox="0 0 26 26" fill="none" xmlns="http://www.w3.org/2000/svg">
<path fill-rule="evenodd" clip-rule="evenodd" d="M6.27059 15.1884C6.31714 15.2039 6.36501 15.2152 6.41359 15.222C6.72009 15.9442 7.02487 16.6671 7.32793 17.3908C7.87284 18.693 8.42209 20.0342 8.54234 20.4198C8.69293 20.8943 8.85109 21.2172 9.02443 21.4382C9.11434 21.5508 9.21726 21.6505 9.33859 21.7263C9.4018 21.7659 9.46943 21.7979 9.54009 21.8217C9.88676 21.9517 10.2031 21.8975 10.4013 21.8314C10.5177 21.7917 10.6284 21.7371 10.7307 21.6689L10.7361 21.6667L13.7976 19.7579L17.3347 22.4684C17.3867 22.5085 17.443 22.5421 17.5037 22.5692C17.9283 22.7533 18.34 22.8183 18.7278 22.7663C19.1135 22.7122 19.4201 22.5507 19.6487 22.3677C19.9111 22.1561 20.1204 21.886 20.2597 21.579L20.2694 21.5552L20.2727 21.5465L20.2748 21.5422V21.54L20.2759 21.5389C20.2948 21.4923 20.3093 21.4441 20.3193 21.3948L23.5476 5.11773C23.5578 5.06563 23.5629 5.01266 23.5628 4.95957C23.5628 4.4829 23.3829 4.02898 22.9615 3.7549C22.5997 3.51982 22.1978 3.50898 21.9432 3.52848C21.6702 3.55015 21.4167 3.61732 21.2466 3.67148C21.1514 3.70166 21.0574 3.73563 20.9649 3.77332L20.953 3.77873L2.84618 10.8811L2.84401 10.8822C2.78275 10.9047 2.72239 10.9296 2.66309 10.9569C2.51951 11.0215 2.38178 11.0983 2.25143 11.1866C2.00551 11.3545 1.43893 11.816 1.53534 12.5786C1.61118 13.1853 2.02718 13.5591 2.28176 13.7389C2.42043 13.8375 2.55259 13.9079 2.65009 13.9545C2.69343 13.9761 2.78659 14.013 2.82668 14.0303L2.83751 14.0336L6.27059 15.1884ZM21.5868 5.27373H21.5846C21.5753 5.27787 21.5659 5.28185 21.5564 5.28565L3.42793 12.3977C3.4186 12.4015 3.40921 12.4051 3.39976 12.4086L3.38893 12.4118C3.35581 12.4248 3.32328 12.4393 3.29143 12.4551C3.32158 12.4724 3.35268 12.488 3.38459 12.5017L6.78843 13.6479C6.84925 13.6684 6.90744 13.696 6.96176 13.7302L18.2035 7.14898L18.2143 7.14357C18.258 7.11703 18.3028 7.09245 18.3487 7.0699C18.4267 7.02982 18.5513 6.97132 18.6921 6.92798C18.7896 6.89765 19.0788 6.81207 19.3908 6.91282C19.5563 6.96498 19.7038 7.06263 19.8165 7.19461C19.9291 7.3266 20.0023 7.4876 20.0278 7.65923C20.0682 7.80955 20.0693 7.9677 20.0311 8.11857C19.9553 8.41648 19.7473 8.64832 19.5566 8.82598C19.3941 8.97765 17.287 11.01 15.2081 13.0163L12.3773 15.7463L11.8736 16.2338L18.2349 21.111C18.3208 21.147 18.414 21.1619 18.5068 21.1543C18.5536 21.148 18.5976 21.1284 18.6336 21.098C18.6775 21.0609 18.7152 21.017 18.7452 20.968L18.7473 20.9669L21.8782 5.17948C21.7796 5.20321 21.6829 5.23435 21.5889 5.27265L21.5868 5.27373ZM12.4207 18.7006L11.151 17.7277L10.8433 19.6832L12.4207 18.7006ZM9.98643 15.7972L11.2485 14.5785L14.0793 11.8463L15.1333 10.8301L8.07001 14.9652L8.10793 15.0541C8.5534 16.1064 8.99396 17.1609 9.42959 18.2174L9.73618 16.2674C9.76392 16.0865 9.85213 15.9215 9.98643 15.7972Z" fill="currentColor"/>
</svg>
